<svg width="110" height="24" viewBox="0 0 110 24" fill="none" xmlns="http://www.w3.org/2000/svg">
<path d="M58.993 4.094L53.504 20H49.863L44.418 4.094H47.487L51.689 16.271L55.924 4.094H58.993ZM64.9703 20.22C64.4423 20.22 63.9216 20.1393 63.4083 19.978C62.9023 19.8167 62.4403 19.5783 62.0223 19.263C61.6043 18.9477 61.267 18.559 61.0103 18.097C60.761 17.635 60.6363 17.0997 60.6363 16.491V8.626H63.8483V16.084C63.8483 16.612 64.0206 17.0447 64.3653 17.382C64.71 17.7193 65.216 17.888 65.8833 17.888C66.514 17.888 67.0126 17.7267 67.3793 17.404C67.7533 17.074 67.9403 16.6157 67.9403 16.029V8.626H71.1193V20H68.6993L68.3253 17.745C68.1933 18.4123 67.944 18.9257 67.5773 19.285C67.218 19.637 66.8036 19.879 66.3343 20.011C65.8723 20.1503 65.4176 20.22 64.9703 20.22ZM76.3744 15.05C76.367 15.6293 76.4587 16.1353 76.6494 16.568C76.84 16.9933 77.115 17.3233 77.4744 17.558C77.841 17.7853 78.281 17.899 78.7944 17.899C79.3444 17.899 79.8247 17.7817 80.2354 17.547C80.6534 17.3123 80.943 16.9273 81.1044 16.392H83.9974C83.8727 17.1987 83.55 17.888 83.0294 18.46C82.516 19.032 81.8927 19.4683 81.1594 19.769C80.426 20.0697 79.6634 20.22 78.8714 20.22C77.7494 20.22 76.7594 19.9853 75.9014 19.516C75.0507 19.0393 74.387 18.3683 73.9104 17.503C73.4337 16.6377 73.1954 15.6183 73.1954 14.445C73.1954 13.3083 73.4117 12.2853 73.8444 11.376C74.277 10.4593 74.904 9.737 75.7254 9.209C76.554 8.67367 77.5477 8.406 78.7064 8.406C79.865 8.406 80.8367 8.65167 81.6214 9.143C82.4134 9.627 83.0074 10.3053 83.4034 11.178C83.8067 12.0433 84.0084 13.0443 84.0084 14.181V15.05H76.3744ZM76.3634 13.136H81.0054C81.0054 12.6813 80.921 12.2633 80.7524 11.882C80.5837 11.5007 80.327 11.2 79.9824 10.98C79.645 10.76 79.2197 10.65 78.7064 10.65C78.2077 10.65 77.7824 10.771 77.4304 11.013C77.0857 11.2477 76.8217 11.5557 76.6384 11.937C76.455 12.3183 76.3634 12.718 76.3634 13.136ZM96.5009 20H93.1459L90.4289 16.293L87.7009 20H84.3349L88.7129 14.071L84.7199 8.626H88.0749L90.4399 11.816L92.7939 8.626H96.1599L92.1339 14.071L96.5009 20ZM100.212 23.63C99.4351 23.63 98.8851 23.564 98.5624 23.432C98.2471 23.3073 98.0894 23.245 98.0894 23.245V21.199L99.2114 21.243C99.7027 21.2723 100.099 21.2467 100.399 21.166C100.7 21.0927 100.927 20.9937 101.081 20.869C101.243 20.7443 101.356 20.6123 101.422 20.473C101.488 20.341 101.536 20.2347 101.565 20.154L101.774 19.527L97.3524 8.626H100.531L103.259 16.04L106.02 8.626H109.155L104.546 20.066C104.15 21.034 103.732 21.7747 103.292 22.288C102.852 22.8013 102.376 23.1533 101.862 23.344C101.356 23.5347 100.806 23.63 100.212 23.63Z" fill="#4B465C"/>
<path d="M58.993 4.094L53.504 20H49.863L44.418 4.094H47.487L51.689 16.271L55.924 4.094H58.993ZM64.9703 20.22C64.4423 20.22 63.9216 20.1393 63.4083 19.978C62.9023 19.8167 62.4403 19.5783 62.0223 19.263C61.6043 18.9477 61.267 18.559 61.0103 18.097C60.761 17.635 60.6363 17.0997 60.6363 16.491V8.626H63.8483V16.084C63.8483 16.612 64.0206 17.0447 64.3653 17.382C64.71 17.7193 65.216 17.888 65.8833 17.888C66.514 17.888 67.0126 17.7267 67.3793 17.404C67.7533 17.074 67.9403 16.6157 67.9403 16.029V8.626H71.1193V20H68.6993L68.3253 17.745C68.1933 18.4123 67.944 18.9257 67.5773 19.285C67.218 19.637 66.8036 19.879 66.3343 20.011C65.8723 20.1503 65.4176 20.22 64.9703 20.22ZM76.3744 15.05C76.367 15.6293 76.4587 16.1353 76.6494 16.568C76.84 16.9933 77.115 17.3233 77.4744 17.558C77.841 17.7853 78.281 17.899 78.7944 17.899C79.3444 17.899 79.8247 17.7817 80.2354 17.547C80.6534 17.3123 80.943 16.9273 81.1044 16.392H83.9974C83.8727 17.1987 83.55 17.888 83.0294 18.46C82.516 19.032 81.8927 19.4683 81.1594 19.769C80.426 20.0697 79.6634 20.22 78.8714 20.22C77.7494 20.22 76.7594 19.9853 75.9014 19.516C75.0507 19.0393 74.387 18.3683 73.9104 17.503C73.4337 16.6377 73.1954 15.6183 73.1954 14.445C73.1954 13.3083 73.4117 12.2853 73.8444 11.376C74.277 10.4593 74.904 9.737 75.7254 9.209C76.554 8.67367 77.5477 8.406 78.7064 8.406C79.865 8.406 80.8367 8.65167 81.6214 9.143C82.4134 9.627 83.0074 10.3053 83.4034 11.178C83.8067 12.0433 84.0084 13.0443 84.0084 14.181V15.05H76.3744ZM76.3634 13.136H81.0054C81.0054 12.6813 80.921 12.2633 80.7524 11.882C80.5837 11.5007 80.327 11.2 79.9824 10.98C79.645 10.76 79.2197 10.65 78.7064 10.65C78.2077 10.65 77.7824 10.771 77.4304 11.013C77.0857 11.2477 76.8217 11.5557 76.6384 11.937C76.455 12.3183 76.3634 12.718 76.3634 13.136ZM96.5009 20H93.1459L90.4289 16.293L87.7009 20H84.3349L88.7129 14.071L84.7199 8.626H88.0749L90.4399 11.816L92.7939 8.626H96.1599L92.1339 14.071L96.5009 20ZM100.212 23.63C99.4351 23.63 98.8851 23.564 98.5624 23.432C98.2471 23.3073 98.0894 23.245 98.0894 23.245V21.199L99.2114 21.243C99.7027 21.2723 100.099 21.2467 100.399 21.166C100.7 21.0927 100.927 20.9937 101.081 20.869C101.243 20.7443 101.356 20.6123 101.422 20.473C101.488 20.341 101.536 20.2347 101.565 20.154L101.774 19.527L97.3524 8.626H100.531L103.259 16.04L106.02 8.626H109.155L104.546 20.066C104.15 21.034 103.732 21.7747 103.292 22.288C102.852 22.8013 102.376 23.1533 101.862 23.344C101.356 23.5347 100.806 23.63 100.212 23.63Z" fill="white" fill-opacity="0.1"/>
<path fill-rule="evenodd" clip-rule="evenodd" d="M0.00183571 0.3125V7.59485C0.00183571 7.59485 -0.141502 9.88783 2.10473 11.8288L14.5469 23.6837L21.0172 23.6005L19.9794 10.8126L17.5261 7.93369L9.81536 0.3125H0.00183571Z" fill="#7367F0"/>
<path opacity="0.06" fill-rule="evenodd" clip-rule="evenodd" d="M8.17938 17.7762L13.3024 3.75179L17.5887 8.02198L8.17938 17.7762Z" fill="#161616"/>
<path opacity="0.06" fill-rule="evenodd" clip-rule="evenodd" d="M8.58234 17.2249L14.8132 5.24237L17.6214 8.05253L8.58234 17.2249Z" fill="#161616"/>
<path fill-rule="evenodd" clip-rule="evenodd" d="M8.25873 17.6914L25.1348 0.3125H34V7.62657C34 7.62657 33.8154 10.0645 32.5753 11.3686L21.0188 23.6875H14.5497L8.25873 17.6914Z" fill="#7367F0"/>
</svg>
